<?xml version="1.0" standalone="no"?>
<!DOCTYPE svg PUBLIC "-//W3C//DTD SVG 20010904//EN"
 "http://www.w3.org/TR/2001/REC-SVG-20010904/DTD/svg10.dtd">
<svg version="1.0" xmlns="http://www.w3.org/2000/svg"
 width="456.000000pt" height="339.000000pt" viewBox="0 0 456.000000 339.000000"
 preserveAspectRatio="xMidYMid meet">

<g transform="translate(0.000000,339.000000) scale(0.100000,-0.100000)"
fill="#000000" stroke="none">
<path d="M2211 3170 c-108 -23 -209 -101 -262 -205 l-34 -65 -57 0 c-45 0 -58
3 -58 15 0 13 -35 15 -251 15 l-251 0 70 -57 c39 -32 71 -61 71 -65 1 -4 -28
-31 -64 -60 -36 -28 -65 -54 -65 -57 0 -3 76 -5 169 -3 164 3 170 2 181 -18
11 -20 19 -21 133 -19 l122 1 26 -50 c78 -151 216 -232 376 -220 132 10 248
90 311 213 l29 58 121 -2 c114 -2 121 -1 132 19 11 21 16 21 186 18 96 -2 174
-1 174 2 -1 3 -32 29 -70 58 -39 29 -70 56 -70 60 0 4 20 22 43 40 23 18 56
43 72 57 l30 25 -252 0 c-218 0 -253 -2 -253 -15 0 -12 -13 -15 -59 -15 l-58
0 -18 48 c-27 69 -133 173 -206 200 -68 25 -158 34 -218 22z m-131 -370 c36 0
39 -12 6 -30 -21 -11 -23 -16 -15 -38 13 -33 6 -37 -25 -17 -24 16 -27 16 -52
-4 -33 -26 -39 -22 -22 14 11 24 10 29 -10 45 -29 24 -28 30 7 30 24 0 31 6
41 33 l11 32 14 -32 c11 -27 20 -33 45 -33z m222 25 c2 -14 12 -21 36 -23 38
-4 39 -8 10 -32 -20 -15 -21 -21 -10 -44 13 -30 6 -33 -26 -10 -21 14 -25 14
-48 -1 -31 -20 -38 -16 -25 17 8 22 6 27 -15 38 -33 18 -30 30 7 30 25 0 33 6
42 30 12 31 23 29 29 -5z m-528 0 c5 -20 13 -25 36 -25 35 0 38 -12 9 -31 -17
-12 -19 -18 -10 -42 12 -31 9 -33 -24 -11 -23 15 -27 15 -50 0 -33 -22 -36
-20 -24 11 9 24 7 30 -10 42 -29 19 -26 31 9 31 23 0 31 5 36 25 3 14 10 25
14 25 4 0 11 -11 14 -25z m790 0 c5 -20 13 -25 36 -25 35 0 38 -12 9 -32 -19
-12 -20 -17 -10 -37 17 -30 8 -36 -23 -16 -24 16 -28 16 -51 1 -33 -22 -36
-20 -24 11 9 24 7 30 -10 42 -29 19 -26 31 9 31 23 0 31 5 36 25 3 14 10 25
14 25 4 0 11 -11 14 -25z m264 0 c9 -19 19 -25 42 -25 36 0 39 -12 6 -30 -21
-11 -23 -16 -15 -38 13 -33 6 -37 -25 -17 -23 15 -27 15 -48 1 -32 -23 -39
-20 -26 10 11 23 10 29 -10 44 -29 24 -28 30 8 30 23 0 31 5 36 25 3 14 9 25
13 25 4 0 13 -11 19 -25z"/>
<path d="M1695 2544 c-93 -76 -295 -199 -423 -258 -79 -36 -172 -86 -207 -110
-158 -113 -265 -265 -311 -440 -20 -74 -22 -221 -5 -296 31 -131 131 -283 249
-375 31 -25 129 -82 217 -126 168 -86 305 -167 305 -181 0 -4 -102 -8 -227 -8
-221 0 -227 1 -251 22 -19 19 -37 24 -101 26 -93 5 -144 -14 -139 -51 5 -38
52 -52 158 -49 204 8 669 7 677 -1 14 -15 -24 -33 -109 -51 -102 -22 -156 -48
-164 -80 -18 -72 97 -141 277 -166 217 -30 329 -72 419 -156 l51 -47 -3 103
-3 103 -96 27 c-88 25 -285 60 -341 60 -50 0 -98 20 -98 41 0 28 44 44 178 64
186 27 231 46 245 104 4 17 -1 30 -20 49 l-25 25 -199 -6 -198 -7 -33 51 c-24
37 -66 75 -155 140 -67 49 -148 116 -180 149 -167 168 -254 473 -192 676 27
91 89 195 142 237 23 19 87 63 142 97 277 172 350 237 416 365 23 47 41 87 38
89 -2 2 -17 -7 -34 -20z"/>
<path d="M2850 2559 c0 -6 15 -41 33 -78 60 -122 161 -211 432 -377 149 -91
244 -212 275 -349 32 -136 -3 -346 -82 -497 -53 -103 -139 -192 -299 -310 -83
-61 -125 -100 -149 -137 l-33 -51 -198 7 c-175 5 -201 4 -223 -11 -18 -11 -26
-25 -26 -44 1 -58 49 -86 187 -108 168 -27 202 -35 225 -54 40 -33 9 -47 -137
-65 -137 -17 -216 -33 -328 -66 l-68 -20 3 -100 c2 -54 4 -99 6 -99 1 0 16 15
31 33 67 75 216 139 366 157 219 25 345 83 345 158 0 50 -48 77 -182 102 -71
13 -103 34 -77 51 15 10 550 5 637 -6 74 -10 137 2 170 30 l27 24 -23 23 c-20
21 -32 23 -111 23 -77 0 -94 -3 -120 -22 -29 -22 -38 -23 -256 -23 -124 0
-225 3 -225 8 0 14 146 102 255 153 176 83 243 127 336 219 68 68 95 103 128
170 92 187 92 372 2 565 -93 196 -222 311 -490 434 -139 64 -228 117 -353 213
-43 32 -78 54 -78 47z"/>
<path d="M1810 2304 c-58 -42 -136 -94 -175 -116 -38 -23 -71 -42 -72 -42 -4
-3 28 -106 33 -106 17 0 159 104 205 150 48 47 128 174 117 185 -2 2 -51 -30
-108 -71z"/>
<path d="M2660 2374 c0 -3 16 -37 36 -75 44 -83 122 -160 153 -152 27 7 71
-22 71 -46 0 -10 7 -24 15 -31 13 -11 15 -6 15 31 0 24 4 50 9 58 7 11 -3 22
-40 45 -28 17 -97 64 -155 104 -57 40 -104 70 -104 66z"/>
<path d="M1989 2273 c-33 -88 -41 -156 -46 -387 -5 -230 -5 -239 13 -231 11 4
38 14 62 22 23 8 40 19 37 24 -3 4 -17 4 -31 -1 -14 -6 -27 -10 -30 -10 -8 0
-4 245 6 338 16 146 38 221 71 241 36 22 28 31 -28 31 -38 0 -45 -3 -54 -27z"/>
<path d="M3027 2142 c-32 -35 -12 -102 28 -102 43 0 54 89 15 110 -24 13 -24
13 -43 -8z"/>
<path d="M1440 2089 c-18 -6 -29 -22 -38 -52 -20 -65 -103 -289 -119 -319 -9
-19 -21 -28 -38 -28 -14 0 -25 -4 -25 -10 0 -6 35 -10 86 -10 54 0 83 4 79 10
-3 6 -15 10 -25 10 -28 0 -31 13 -14 69 14 49 16 51 52 51 20 0 54 3 74 6 34
6 38 4 48 -20 5 -15 13 -45 16 -67 6 -35 4 -39 -14 -39 -12 0 -24 -4 -27 -10
-4 -6 30 -10 94 -10 61 0 101 4 101 10 0 6 -8 10 -19 10 -10 0 -23 6 -29 13
-10 12 -100 275 -122 359 -12 41 -28 46 -80 27z m31 -136 c9 -27 20 -64 24
-81 l7 -32 -56 0 c-34 0 -56 4 -56 11 0 29 45 159 53 156 6 -2 18 -26 28 -54z"/>
<path d="M1752 2083 c-6 -2 -15 -22 -18 -44 -5 -32 -11 -39 -30 -39 -31 0 -40
-18 -12 -22 22 -3 23 -8 29 -128 7 -132 23 -190 57 -209 16 -8 25 -6 46 10 23
18 74 99 62 99 -2 0 -18 -13 -34 -30 -38 -38 -56 -38 -72 1 -15 36 -6 224 11
246 6 7 27 13 45 13 19 0 34 5 34 10 0 6 -18 10 -40 10 l-40 0 7 45 c5 40 4
45 -13 44 -11 0 -25 -3 -32 -6z"/>
<path d="M2806 2074 c-9 -8 -16 -29 -16 -45 0 -24 -4 -29 -24 -29 -32 0 -43
-18 -14 -22 22 -3 23 -8 29 -128 6 -133 22 -190 57 -209 16 -8 25 -6 46 10 23
18 74 99 62 99 -2 0 -18 -13 -34 -30 -17 -16 -37 -30 -45 -30 -28 0 -40 56
-34 158 8 127 10 132 58 132 21 0 39 5 39 10 0 6 -18 10 -40 10 l-40 0 7 45
c5 41 4 45 -15 45 -11 0 -28 -7 -36 -16z"/>
<path d="M1251 1973 c-75 -75 -152 -197 -178 -283 -26 -84 -23 -229 5 -310 31
-89 105 -195 177 -253 33 -26 139 -88 235 -137 96 -49 199 -105 228 -124 121
-81 8 38 -152 159 -61 46 -120 92 -131 102 -101 90 -180 266 -187 416 -3 51
-5 57 -25 57 -32 0 -63 34 -63 69 0 44 10 62 43 76 27 11 36 27 83 154 28 77
48 141 43 141 -5 0 -40 -30 -78 -67z"/>
<path d="M2244 1976 c-89 -39 -185 -251 -141 -310 14 -19 16 -19 40 -3 14 9
45 39 69 67 24 27 46 50 49 50 4 0 3 -19 -2 -42 -16 -82 -16 -81 49 -73 64 8
95 25 45 25 -18 0 -34 3 -36 8 -2 4 2 66 9 137 13 120 13 131 -3 143 -21 15
-40 15 -79 -2z m36 -31 c25 -30 -27 -148 -96 -222 -29 -30 -36 -34 -49 -23
-21 17 -12 76 20 145 27 57 40 74 75 98 30 21 34 21 50 2z"/>
<path d="M2455 1985 c-5 -2 -22 -6 -37 -9 -35 -8 -37 -25 -4 -23 14 1 26 -2
27 -8 2 -17 -12 -229 -18 -252 -4 -20 -1 -23 25 -23 26 0 31 5 37 33 16 72
113 232 131 214 3 -3 1 -63 -6 -132 -6 -70 -9 -129 -6 -132 8 -9 116 18 116
29 0 6 -10 8 -24 4 -14 -3 -27 -2 -30 2 -3 5 0 70 6 146 8 97 8 140 0 148 -23
23 -58 -3 -111 -82 -30 -44 -56 -80 -58 -80 -2 0 0 38 3 85 7 85 7 85 -17 84
-13 0 -28 -2 -34 -4z"/>
<path d="M3002 1978 c-24 -5 -40 -14 -36 -19 3 -6 18 -8 31 -4 l26 6 -7 -83
c-4 -46 -9 -113 -13 -150 -5 -63 -4 -68 14 -68 12 0 25 6 30 13 11 13 33 196
33 270 0 52 -1 53 -78 35z"/>
<path d="M3225 1976 c-43 -18 -93 -79 -101 -122 -4 -20 -4 -61 -1 -92 5 -47
11 -62 37 -84 25 -23 40 -28 81 -28 43 0 55 5 80 29 16 16 29 40 29 53 -1 23
-1 23 -17 -4 -24 -38 -55 -52 -97 -44 -54 10 -70 42 -63 120 7 69 21 110 51
144 31 35 76 23 76 -20 0 -11 7 -18 20 -18 16 0 20 7 20 30 0 46 -54 63 -115
36z"/>
<path d="M3377 1867 c-14 -21 -13 -25 14 -55 48 -54 32 -147 -32 -193 -25 -18
-29 -27 -29 -69 0 -62 -43 -208 -83 -283 -45 -85 -103 -146 -236 -245 -109
-81 -207 -170 -198 -179 3 -2 40 18 83 45 44 26 147 81 229 122 136 66 157 81
226 149 121 122 169 229 169 376 0 97 -18 172 -64 263 -44 88 -58 100 -79 69z"/>
<path d="M3070 1535 c0 -88 -21 -172 -62 -245 -49 -89 -55 -103 -63 -143 l-6
-39 43 24 c68 36 165 138 195 205 29 62 40 151 29 226 l-7 43 -64 0 -65 -1 0
-70z"/>
<path d="M1376 1591 c-3 -4 -8 -33 -12 -63 -7 -61 12 -152 47 -220 28 -54 111
-136 175 -170 l50 -27 -19 62 c-11 34 -32 87 -47 117 -41 81 -60 155 -60 237
l0 73 -64 0 c-36 0 -67 -4 -70 -9z"/>
<path d="M2192 1538 c-15 -15 -16 -52 -2 -79 26 -48 91 4 73 58 -11 31 -49 43
-71 21z"/>
<path d="M1828 1497 c-96 -28 -160 -99 -166 -187 -13 -176 104 -282 291 -267
38 3 75 11 82 17 19 16 75 116 75 135 0 24 -13 17 -35 -18 -44 -71 -162 -97
-250 -56 -119 56 -130 246 -19 319 20 14 46 20 89 20 66 0 112 -21 141 -65 25
-38 34 -31 34 28 0 54 0 54 -39 65 -63 19 -152 23 -203 9z"/>
<path d="M2393 1480 c-13 -5 -25 -21 -29 -37 -10 -50 -13 -53 -39 -53 -14 0
-25 -4 -25 -10 0 -5 11 -10 24 -10 23 0 24 -1 28 -127 5 -155 23 -208 73 -208
25 0 35 8 62 49 39 59 35 72 -8 28 -37 -38 -43 -39 -63 -10 -17 24 -21 132 -8
218 7 45 7 45 50 48 54 4 55 22 2 22 l-41 0 7 50 c7 52 4 55 -33 40z"/>
<path d="M2188 1376 c-58 -14 -72 -26 -28 -26 l33 0 -6 -52 c-14 -121 -19
-236 -11 -240 5 -3 18 -2 30 2 18 7 22 22 32 123 14 131 15 208 5 206 -5 -1
-29 -6 -55 -13z"/>
<path d="M2765 1356 c-18 -19 -38 -55 -45 -83 -17 -62 -27 -73 -35 -37 -19 85
-39 144 -47 144 -6 0 -34 -7 -64 -16 -57 -16 -74 -30 -24 -21 29 6 30 6 50
-66 68 -230 70 -236 93 -228 19 7 22 16 23 83 2 98 29 186 62 201 103 47 35
-294 -83 -416 -62 -64 -95 -44 -95 57 0 54 -1 56 -26 56 l-27 0 6 -67 c7 -70
29 -115 60 -121 28 -6 90 31 143 83 92 92 154 259 141 383 -7 63 -23 82 -70
82 -21 0 -39 -10 -62 -34z"/>
</g>
</svg>
