<?xml version="1.0" encoding="utf-8"?>
<!-- Generator: Adobe Illustrator 22.1.0, SVG Export Plug-In . SVG Version: 6.00 Build 0)  -->
<svg
	version="1.1"
	id="Capa_1"
	xmlns="http://www.w3.org/2000/svg"
	xmlns:xlink="http://www.w3.org/1999/xlink"
	x="0px"
	y="0px"
	viewBox="0 0 328 337"
	style="enable-background:new 0 0 328 337;"
	xml:space="preserve"
	>
	<style type="text/css">
		.st0{fill:#EFC52E;}
		.st1{fill:#FFFFFF;}
	</style>
	<path class="st0" d="M184.4,124.8c-25.6,0-43.9,17.1-43.9,41.9v33.3v0.3c0,3.1-2.5,5.4-5.7,5.4s-5.7-2.5-5.7-5.7l0,0v-65.5
		c0-5.9-4-10.8-10.5-10.8s-10.8,4.5-10.8,10.8v65.5c0,14.9,12.2,26.7,26.7,26.7c14.3,0,25.9-11.3,26.7-25.3c0-0.6,0-1.1,0-1.4v-33.8
		c0-13.7,9.3-22.8,22.8-22.8c13.4,0,22.8,9.1,22.8,22.8v49.8c0,5.9,4,10.8,10.5,10.8c6.5,0,10.5-4.5,10.5-10.8v-49.2
		C228.2,141.6,210,124.8,184.4,124.8"/>
	<path class="st1" d="M107.8,104.6c0-5.9,4.8-10.8,10.8-10.8s10.8,4.8,10.8,10.8c0,5.9-4.8,10.8-10.8,10.8
		C112.3,115.2,107.8,110.5,107.8,104.6"/>
	<path class="st0" d="M163.6,312c-40.2,0-80.2-17.1-108.4-50.1c-24.5-29-35.9-65.7-32.8-103.3s20.8-72,49.8-96.2
		C131.7,12,221.3,19.5,271.7,79.2c33.3,39.3,42.5,93.7,24.2,141.8c-2,5.4-7.9,7.9-13.2,5.9c-5.4-2-7.9-7.9-5.9-13.2
		c15.7-41.3,7.9-87.9-20.5-121.6c-43.2-51.4-120-57.7-170.9-14.4c-24.8,20.8-39.9,50.1-42.5,82.5c-2.8,32.4,7.4,63.5,28.2,88.3
		c43,51.2,119.9,57.5,170.8,14.3c4.2-3.7,10.8-3.1,14.3,1.1c3.7,4.2,3.1,10.8-1.1,14.3C228.5,301,196,312,163.6,312"/>
	<path class="st1" d="M261.5,246.6c0-5.9,4.8-10.8,10.8-10.8c5.9,0,10.8,4.8,10.8,10.8c0,5.9-4.8,10.8-10.8,10.8
		C266.3,257.4,261.5,252.6,261.5,246.6"/>
</svg>
